<svg xmlns="http://www.w3.org/2000/svg" viewBox="0 0 920 255.91565">
	<path fill="#ff9100" d="m 132.95552,0.01597293 0,24.36235707 37.61322,0 -55.89208,55.899661 -37.963989,-38.001723 c -6.745916,4.647674 -12.601825,10.503184 -17.248901,17.2491 l 38.001524,37.963991 -67.013551,67.011951 34.424132,0 49.800785,-49.80058 37.96399,37.99353 c 6.75191,-4.64707 12.59384,-10.48901 17.2487,-17.24331 l -38.00132,-37.961591 55.89207,-55.899861 0,37.620806 24.36995,0 0,-79.19433107 -79.19453,0 z"/>
	<g fill="#6699cc">
		<path d="m 113.41332,1.5396e-6 c -0.42204,0 -0.8345,0 -1.24776,0.0159713904 C 59.493517,1.3495839 17.203555,44.490301 17.203555,97.489359 l 0,12.180381 59.431055,0 12.190562,-12.180381 -12.190562,-12.189963 -34.039022,0 C 48.40538,50.729125 78.451556,24.37833 114.66888,24.37833 l 12.18976,0 0,-24.36235707 -12.18976,0 c -0.41346,0 -0.83451,-0.0079857 -1.25556,-0.0159713904 z M 152.71851,85.299396 l -12.18976,12.189963 12.18976,12.180381 34.03284,0 c -5.81139,34.57167 -35.85757,60.92306 -72.08247,60.92306 l -90.306229,0 L 0,194.95456 l 114.66888,0 c 53.84094,0 97.48915,-43.63204 97.48915,-97.465201 l 0,-12.189963 -59.43952,0 z"/>
		<path d="m 266.6005,115.87822 c 0,-8.11127 -4.05673,-12.16561 -12.1662,-12.16561 l -30.41551,0 0,-18.249507 36.49861,0 c 20.27568,0 30.41352,10.139635 30.41352,30.415117 l 0,79.07634 -12.16621,0 -6.0811,-12.16581 -6.08311,12.16581 -24.33241,0 c -20.27567,0 -30.41351,-10.13724 -30.41351,-30.41352 l 0,-12.1656 c 0,-20.27628 10.13784,-30.41352 30.41351,-30.41352 l 24.33241,0 0,-6.0837 z m -18.2493,24.33061 c -8.10948,0 -12.16621,4.05673 -12.16621,12.16661 l 0,12.1656 c 0,8.10967 4.05673,12.16641 12.16621,12.16641 l 18.2493,0 0,-36.49862 -18.2493,0 z"/>
		<path d="m 314.89599,255.91565 0,-18.24781 30.41352,0 c 8.11146,0 12.1662,-4.05593 12.1662,-12.1656 l 0,-30.41352 -24.33041,0 c -20.27768,0 -30.41552,-10.13964 -30.41552,-30.41591 l 0,-48.66283 c 0,-20.275278 10.13784,-30.413516 30.41552,-30.413516 l 24.33041,0 6.0831,12.166604 6.08311,-12.166604 12.1662,0 0,139.905776 c 0,20.27531 -10.13784,30.41341 -30.41551,30.41341 l -36.49662,0 z m 42.57972,-152.07128 -18.24731,0 c -8.11147,0 -12.16621,4.05594 -12.16621,12.16561 l 0,48.66283 c 0,8.11127 4.05474,12.1666 12.16621,12.1666 l 18.24731,0 0,-72.99504 z"/>
		<path d="m 430.1036,85.666738 0,109.491252 -24.33041,0 0,-91.24194 -12.1662,0 0,-18.249312 36.49661,0 z m 0,-48.663025 0,24.330015 -24.33041,0 0,-24.330015 24.33041,0 z"/>
		<path d="m 478.3931,36.987742 -24.36435,12.182176 0,36.480449 -12.12628,0 0,18.271073 12.12628,0 0,60.83721 c 0,20.27608 10.16978,30.39934 30.44546,30.39934 l 15.17681,0 0,-18.21736 -9.08573,0 c -8.10947,0 -12.17219,-4.06991 -12.17219,-12.18198 l 0,-60.83721 35.87972,0 0,60.83721 c 0,20.27608 10.12387,30.39934 30.39955,30.39934 l 14.72362,0 c -4.46201,-5.10864 -7.25301,-11.385 -8.68844,-18.21736 -8.07154,-0.0156 -12.12627,-4.08628 -12.12627,-12.18198 l 0,-60.83721 24.35437,0 0,-18.271073 -24.35437,0 0,-48.662625 -24.30846,12.182176 0,36.480449 -35.87972,0 0,-48.662625 z"/>
		<path d="m 574.76646,85.650367 0,18.271073 30.39954,0 c 8.10947,0 12.17219,4.06551 12.17219,12.17439 l 0,6.09148 -24.35437,0 c -20.27568,0 -30.39954,10.12167 -30.39954,30.39695 l 0,12.17439 c 0,20.27608 10.12386,30.39934 30.39954,30.39934 l 24.35437,0 6.09109,-12.18197 6.09109,12.18197 12.12628,0 0,-79.06216 c 0,-20.275481 -10.12187,-30.445463 -30.39955,-30.445463 l -36.48064,0 z m 24.30845,54.754313 18.26328,0 0,36.48065 -18.26328,0 c -8.11147,0 -12.18218,-4.01461 -12.18218,-12.12668 l 0,-12.17439 c 0,-8.10887 4.07071,-12.17958 12.18218,-12.17958 z"/>
		<path d="m 677.7919,195.15799 -24.33042,0 0,-79.07774 c 0,-20.276272 10.13784,-30.413512 30.41352,-30.413512 l 18.24931,0 0,18.249312 -12.16621,0 c -8.10947,0 -12.1662,4.05453 -12.1662,12.1642 l 0,79.07774 z"/>
		<path d="m 750.41979,85.666738 0,109.491252 -24.33041,0 0,-91.24194 -12.16621,0 0,-18.249312 36.49662,0 z m 0,-48.663025 0,24.330015 -24.33041,0 0,-24.330015 24.33041,0 z"/>
		<path d="m 786.55106,85.666738 0,79.076342 c 0,8.11127 4.05474,12.16561 12.16621,12.16561 l 18.24731,0 0,-91.241952 24.33241,0 0,109.491252 -12.1662,0 -6.08311,-12.1656 -6.0831,12.1656 -24.33041,0 c -20.27568,0 -30.41352,-10.13724 -30.41352,-30.41491 l 0,-79.076342 24.33041,0 z"/>
		<path d="m 898.71014,164.74308 c 0,20.27767 -10.13784,30.41491 -30.41551,30.41491 l -15.20676,0 0,-18.2493 9.12366,0 c 8.11146,0 12.1662,-4.05434 12.1662,-12.16561 l 0,-48.66283 c 0,-20.276272 10.13784,-30.413512 30.41551,-30.413512 l 15.20676,0 0,18.249312 -9.12565,0 c -8.10947,0 -12.16421,4.05453 -12.16421,12.1642 l 0,48.66283 z"/>
	</g>
</svg>
