<svg xmlns="http://www.w3.org/2000/svg" viewBox="0 0 512 470.48416">
	<path fill="#6699cc" d="m 273.70348,0.0010475 c -1.00798,-0.00425 -2.00426,0.00425 -3.01226,0.0288 C 143.58297,3.251185 41.51578,107.3717 41.51578,235.25542 l 0,29.41226 143.44212,0 29.41226,-29.41226 -29.41226,-29.41332 -82.15786,0 C 116.81177,122.4213 189.34083,58.829835 276.74562,58.829835 l 29.41226,0 0,-58.7999875 -29.41226,0 c -1.01654,0 -2.02986,-0.0202625 -3.04214,-0.0288 z m 94.8544,205.8410525 -29.41226,29.41332 29.41226,29.41226 82.13333,0 c -14.01706,83.4208 -86.54186,147.01653 -173.94559,147.01653 l -217.945575,0 L 0,470.48415 l 276.74562,0 C 406.66241,470.48415 512,365.17125 512,235.25542 l 0,-29.41332 -143.44212,0 z"/>
	<path fill="#ff9100" d="m 320.86188,0.025585 0,58.808525 90.78399,0 -134.89171,134.89171 -91.61279,-91.70452 c -16.27947,11.22134 -30.40854,25.34187 -41.6256,41.6256 l 91.70453,91.61172 -161.720738,161.72596 83.066868,0 120.18773,-120.1921 91.61172,91.70464 c 16.3008,-11.22571 30.4,-25.32597 41.62559,-41.62571 l -91.70452,-91.61279 134.89172,-134.89172 0,90.78826 58.80853,0 0,-191.129575 -191.12532,0 z"/>
</svg>
